<svg xmlns="http://www.w3.org/2000/svg" xmlns:xlink="http://www.w3.org/1999/xlink" viewBox="210 135 490 610"><defs><style>.cls-1{fill-rule:evenodd;fill:url(#Sfumatura_senza_nome_3);}.cls-2{fill:#fff;}</style><linearGradient id="Sfumatura_senza_nome_3" x1="452.35" y1="584.85" x2="452.35" y2="146.69" gradientUnits="userSpaceOnUse"><stop offset="0" stop-color="#c32026"/><stop offset="0.25" stop-color="#d4521c"/><stop offset="0.61" stop-color="#eb9410"/><stop offset="0.87" stop-color="#fabd08"/><stop offset="1" stop-color="#ffcd05"/></linearGradient></defs><title>Tavola disegno 1 copia 2</title><g id="Livello_1" data-name="Livello 1"><path class="cls-1" d="M489.16,579.46c60.49-18.53,105-78.43,105-150.36,0-22.31-7.85-55.36-15.54-74.55C572,380.74,564.51,420.06,537.2,448,623.09,292.1,434,271.84,468.54,146.69c-68,81.41-12.78,150.7,6.58,196.15,22,51.58-37.87,71.15-44.64,17.4-1.8-14.26-1.11-33,1.87-55.35-31,62-45.59,93.62-12.71,153.85-95.8-90.86,33.26-129.83-47.25-215.82,15.72,40.06-15.93,71.41-39.72,111.81-55.05,93.49-1.08,208,91.73,227.52,20.23,4.24,44.93,3.28,64.76-2.79"/><path class="cls-2" d="M578.62,354.61l-.14-.14c0,.23,0,.45,0,.68C578.53,355,578.58,354.79,578.62,354.61Z"/><path class="cls-2" d="M578.69,354.68c7.68,19.21,15.49,52.17,15.49,74.42,0,71.93-44.53,131.83-105,150.36-19.83,6.07-44.53,7-64.76,2.79-92.81-19.47-146.78-134-91.73-227.52,3.22-5.46,6.57-10.75,9.94-15.92a184.62,184.62,0,0,0-76.3,149.7c0,102.09,82.83,184.83,184.93,184.8S636.08,590.49,636,488.39A184.22,184.22,0,0,0,578.69,354.68Z"/></g></svg>