<svg xmlns="http://www.w3.org/2000/svg" xmlns:xlink="http://www.w3.org/1999/xlink" viewBox="400 340 800 230" preserveAspectRatio="xMidYMid meet"><defs><style>.cls-1{fill:#fff;}.cls-2{fill:#fff;}.cls-3{fill-rule:evenodd;fill:url(#Sfumatura_senza_nome_3);}</style><linearGradient id="Sfumatura_senza_nome_3" x1="600.82" y1="473.62" x2="600.82" y2="341.01" gradientUnits="userSpaceOnUse"><stop offset="0" stop-color="#c32026"/><stop offset="0.25" stop-color="#d4521c"/><stop offset="0.61" stop-color="#eb9410"/><stop offset="0.87" stop-color="#fabd08"/><stop offset="1" stop-color="#ffcd05"/></linearGradient></defs><title>Tavola disegno 1 copia 3</title><g id="Livello_1" data-name="Livello 1"><path class="cls-1" d="M478.34,549.92l.89-1a8.87,8.87,0,0,0,6.57,2.72c2.74,0,4.63-1.54,4.63-3.63v-.06c0-1.93-1-3.06-5.18-3.9-4.4-.89-6.18-2.38-6.18-5.15v0c0-2.72,2.49-4.82,5.89-4.82a9.14,9.14,0,0,1,6.28,2.23l-.87,1.07a7.87,7.87,0,0,0-5.46-2.07c-2.7,0-4.48,1.55-4.48,3.46v0c0,1.93,1,3.11,5.34,4s6,2.38,6,5v.06c0,2.95-2.54,5-6.07,5A10.44,10.44,0,0,1,478.34,549.92Z"/><path class="cls-1" d="M504.29,534.27h1.37v18.32h-1.37Z"/><path class="cls-1" d="M518,549.92l.89-1a8.9,8.9,0,0,0,6.57,2.72c2.75,0,4.63-1.54,4.63-3.63v-.06c0-1.93-1-3.06-5.18-3.9-4.39-.89-6.17-2.38-6.17-5.15v0c0-2.72,2.48-4.82,5.88-4.82a9.13,9.13,0,0,1,6.28,2.23l-.86,1.07a7.89,7.89,0,0,0-5.47-2.07c-2.69,0-4.47,1.55-4.47,3.46v0c0,1.93,1,3.11,5.34,4s6,2.38,6,5v.06c0,2.95-2.53,5-6.07,5A10.44,10.44,0,0,1,518,549.92Z"/><path class="cls-1" d="M548.41,535.53H542v-1.26h14.13v1.26h-6.39v17.06h-1.36Z"/><path class="cls-1" d="M568.14,534.27h13v1.26H569.5v7.2H580V544H569.5v7.36h11.8v1.25H568.14Z"/><path class="cls-1" d="M593.52,534.27h1.29l7.35,10.84,7.35-10.84h1.28v18.32h-1.36V536.68l-7.25,10.55h-.1l-7.25-10.55v15.91h-1.31Z"/><path class="cls-1" d="M624.27,534.27h1.36v18.32h-1.36Z"/><path class="cls-1" d="M661.77,534.14h1.3l8.54,18.45h-1.5l-2.33-5.13H657l-2.33,5.13h-1.42Zm5.44,12.09-4.82-10.6-4.84,10.6Z"/><path class="cls-1" d="M683.33,534.27h1.28l12.64,15.94V534.27h1.31v18.32h-1l-12.9-16.28v16.28h-1.31Z"/><path class="cls-1" d="M716.93,535.53h-6.39v-1.26h14.13v1.26h-6.38v17.06h-1.36Z"/><path class="cls-1" d="M736.84,534.27h1.36v18.32h-1.36Z"/><path class="cls-1" d="M751.67,534.27H753l12.64,15.94V534.27h1.3v18.32h-1L753,536.31v16.28h-1.31Z"/><path class="cls-1" d="M779.39,543.49v-.06a9.2,9.2,0,0,1,9.15-9.47,9.63,9.63,0,0,1,7.12,2.93l-1,1a8.39,8.39,0,0,0-6.17-2.69c-4.4,0-7.72,3.58-7.72,8.19v0c0,4.63,3.37,8.25,7.74,8.25a8.37,8.37,0,0,0,6.31-2.86l.92.89a9.68,9.68,0,0,1-7.28,3.2A9.1,9.1,0,0,1,779.39,543.49Z"/><path class="cls-1" d="M807.36,534.27h13v1.26H808.72v7.2h10.49V544H808.72v7.36h11.8v1.25H807.36Z"/><path class="cls-1" d="M832.74,534.27H834l12.64,15.94V534.27H848v18.32h-1l-12.9-16.28v16.28h-1.31Z"/><path class="cls-1" d="M861.26,534.27h6.1c5.76,0,9.73,4,9.73,9.11v0c0,5.16-4,9.16-9.73,9.16h-6.1Zm6.1,17.07c5.1,0,8.32-3.48,8.32-7.85v-.06c0-4.34-3.22-7.9-8.32-7.9h-4.74v15.81Z"/><path class="cls-1" d="M889.76,534.27h1.36v18.32h-1.36Z"/><path class="cls-1" d="M903.78,543.49v-.06a9.21,9.21,0,1,1,18.42,0v0a9.21,9.21,0,1,1-18.42.06Zm17,0v-.06a7.93,7.93,0,0,0-7.82-8.24c-4.53,0-7.77,3.66-7.77,8.19v0c0,4.53,3.29,8.25,7.82,8.25S920.79,548,920.79,543.49Z"/><path class="cls-1" d="M950.39,534.27h6.09c5.76,0,9.74,4,9.74,9.11v0c0,5.16-4,9.16-9.74,9.16h-6.09Zm6.09,17.07c5.11,0,8.32-3.48,8.32-7.85v-.06c0-4.34-3.21-7.9-8.32-7.90h-4.73v15.81Z"/><path class="cls-1" d="M984.48,534.14h1.31l8.53,18.45h-1.49l-2.33-5.13H979.69l-2.33,5.13H976Zm5.44,12.09-4.81-10.6-4.84,10.6Z"/><path class="cls-1" d="M1006,534.27h1.36v17.07h10.76v1.25H1006Z"/><path class="cls-1" d="M1047.75,535.56l-3.53,1.2-.37-1.07,4.19-1.55h1v18.45h-1.34Z"/><path class="cls-1" d="M1061.83,550.63l.86-1a6.88,6.88,0,0,0,4.69,2.1c3.69,0,6.28-4,6.07-9.45a6.32,6.32,0,0,1-5.71,3.53c-3.69,0-6.33-2.46-6.33-5.6v0a6.15,6.15,0,0,1,6.44-6.15,6.49,6.49,0,0,1,4.66,1.86c1.41,1.41,2.3,3.48,2.3,7.14v0c0,5.76-3.19,9.9-7.46,9.90A8.34,8.34,0,0,1,1061.83,550.63Zm11.07-10.73v0c0-2.59-2.17-4.66-5.21-4.66a4.76,4.76,0,0,0-4.87,4.87v.05c0,2.56,2.07,4.45,5,4.45A4.88,4.88,0,0,0,1072.90,539.90Z"/><path class="cls-1" d="M1085.77,547.70v-.05c0-2.15,1.75-3.77,4.06-4.53-1.81-.73-3.43-2.09-3.43-4.27v-.05c0-2.85,3-4.79,6.17-4.79s6.18,1.94,6.18,4.79v.05c0,2.18-1.62,3.54-3.43,4.27,2.31.76,4.06,2.38,4.06,4.53v.05c0,3-3,5.15-6.81,5.15S1085.77,550.73,1085.77,547.70Zm12.20,0v0c0-2.28-2.41-3.93-5.40-3.93s-5.39,1.65-5.39,3.93v0c0,2.07,2,3.87,5.39,3.87S1097.97,549.82,1097.97,547.75Zm-.63-8.90v-.05c0-2.07-2.10-3.56-4.77-3.56s-4.76,1.49-4.76,3.56v.05c0,2.25,2.17,3.77,4.76,3.77S1097.34,541.10,1097.34,538.85Z"/><path class="cls-1" d="M1110.68,550.63l.87-1a6.86,6.86,0,0,0,4.68,2.10c3.69,0,6.28-4,6.07-9.45a6.31,6.31,0,0,1-5.70,3.53c-3.69,0-6.34-2.46-6.34-5.60v0a6.15,6.15,0,0,1,6.44-6.15,6.49,6.49,0,0,1,4.66,1.86c1.41,1.41,2.30,3.48,2.30,7.14v0c0,5.76-3.19,9.90-7.46,9.90A8.36,8.36,0,0,1,1110.68,550.63Zm11.07-10.73v0c0-2.59-2.17-4.66-5.21-4.66a4.75,4.75,0,0,0-4.86,4.87v.05c0,2.56,2.06,4.45,5,4.45A4.88,4.88,0,0,0,1121.75,539.90Z"/><path class="cls-2" d="M518.91,417A44.68,44.68,0,0,1,532,432.30a42.73,42.73,0,0,1,4.93,20.25,43.62,43.62,0,0,1-3.54,17.58,47,47,0,0,1-9.64,14.36,44.57,44.57,0,0,1-14.37,9.76,44,44,0,0,1-17.47,3.53H460.39l-13.93-26.15h45.87A10.80,10.80,0,0,0,498,470a17.43,17.43,0,0,0,4.61-4,19.86,19.86,0,0,0,3.11-5.36,16.42,16.42,0,0,0,1.18-6,17.87,17.87,0,0,0-1.18-6.33,17.20,17.20,0,0,0-3.32-5.46,19.14,19.14,0,0,0-4.83-3.86,11.44,11.44,0,0,0-5.68-1.50H438.10v60.23h-30V347.52h73.10a43.90,43.90,0,0,1,17.47,3.54,44.79,44.79,0,0,1,24,24,43.81,43.81,0,0,1,3.54,17.46,42.66,42.66,0,0,1-1.93,13A47.84,47.84,0,0,1,518.91,417Zm-37.72-9.22a12.14,12.14,0,0,0,5.68-1.39,18.39,18.39,0,0,0,4.82-3.64,15.85,15.85,0,0,0,3.32-5.36,18.71,18.71,0,0,0,0-13.08,17,17,0,0,0-3.32-5.46,17.40,17.40,0,0,0-4.82-3.75,12.15,12.15,0,0,0-5.68-1.40H438.10v34.08Z"/><path class="cls-2" d="M752.34,394.89l-2.57,4.29-10.93,19.51-.22-.22a30.77,30.77,0,0,0-25.72-2.25,28.54,28.54,0,0,0-8.79,5.15,31.30,31.30,0,0,0-6.53,7.82,27.47,27.47,0,0,0-3.54,9.65v58.94H664.89V390.61H694v13.93q11.36-15.65,33.22-15.65a55,55,0,0,1,24.87,6Z"/><path class="cls-2" d="M802.72,461.13a11.19,11.19,0,0,0,3.53,8.36,11.77,11.77,0,0,0,8.47,3.43h20.79v24.86H814.72A40.36,40.36,0,0,1,786.10,486.10a41.70,41.70,0,0,1-8.68-12.75,38.41,38.41,0,0,1-3.21-15.65V425.55H758.77v-23.80h15.44V363h28.51Zm32.79-59.38v23.80H819.65l-13.29-23.80Z"/><path class="cls-2" d="M964.12,390.61h29.15V497.78H964.12Zm99,12.43a41.15,41.15,0,0,1,7.72,16.72,111.23,111.23,0,0,1,2.36,24.86v53.16h-29.15V444.49q0-6-.32-11.50a26.74,26.74,0,0,0-2.26-9.67,14.06,14.06,0,0,0-6.21-6.56q-4.29-2.36-12.22-2.36a30.73,30.73,0,0,0-13.93,3.21v.22l-.22-.22-10.50-18.52.21-.21q11.14-10,27.87-10Q1052.23,388.89,1063.15,403Z"/><path class="cls-2" d="M1138.61,388.89a53,53,0,0,1,21.43,4.40,56,56,0,0,1,29.47,29.47,53.55,53.55,0,0,1,4.40,21.65,55,55,0,0,1-1.29,12l-.21.43H1138L1124.24,435H1165a31.78,31.78,0,0,0-10-14.79,24.84,24.84,0,0,0-16.39-5.79,26,26,0,0,0-10.94,2.35,28.48,28.48,0,0,0-8.89,6.30,28.81,28.81,0,0,0-5.90,9.40,32,32,0,0,0-2.14,11.85,29.17,29.17,0,0,0,1.93,10.15,31,31,0,0,0,5.57,9.50,32.10,32.10,0,0,0,8.79,7.16,23.30,23.30,0,0,0,11.58,2.88,33.49,33.49,0,0,0,10.61-1.61q4.82-1.61,9.11-7.18l.21-.21.43.21,24.86,10.95-.43.43a53.49,53.49,0,0,1-19.61,16.86,54.74,54.74,0,0,1-25.18,6.06,55.43,55.43,0,0,1-21.76-4.29,54.83,54.83,0,0,1-17.69-11.79,56.56,56.56,0,0,1-11.89-17.58,53,53,0,0,1-4.40-21.43,53.55,53.55,0,0,1,4.40-21.65,55.68,55.68,0,0,1,29.58-29.47A54.29,54.29,0,0,1,1138.61,388.89Z"/><path class="cls-2" d="M899.83,388.49a55.95,55.95,0,1,0,55.95,55.95A56,56,0,0,0,899.83,388.49Zm0,84.43a28.48,28.48,0,1,1,28.47-28.48A28.47,28.47,0,0,1,899.83,472.92Z"/><path class="cls-3" d="M612,472c18.31-5.61,31.78-23.74,31.78-45.51,0-6.75-2.37-16.75-4.70-22.56-2,7.93-4.28,19.83-12.54,28.28,26-47.18-31.24-53.31-20.78-91.19-20.59,24.64-3.87,45.61,2,59.36,6.65,15.62-11.46,21.54-13.51,5.27a68.44,68.44,0,0,1,.57-16.75c-9.37,18.76-13.80,28.33-3.85,46.56-29-27.50,10.07-39.29-14.30-65.32,4.76,12.13-4.82,21.62-12,33.84-16.66,28.30-.33,63,27.76,68.86A41.80,41.80,0,0,0,612,472"/><path class="cls-2" d="M639,403.94l0,0v.20Z"/><path class="cls-2" d="M639.06,404c2.32,5.81,4.68,15.79,4.68,22.52,0,21.77-13.47,39.90-31.78,45.51a41.80,41.80,0,0,1-19.60.84c-28.09-5.89-44.42-40.56-27.76-68.86,1-1.65,2-3.25,3-4.81a56,56,0,1,0,71.45,4.80Z"/></g></svg>